<?xml version="1.0" encoding="UTF-8"?>
<svg xmlns="http://www.w3.org/2000/svg" viewBox="0 0 800 240" width="800" height="240" preserveAspectRatio="xMidYMid slice">
  <circle cx="641.7" cy="10.0" r="1.09" fill="#0f4c81" opacity="0.22"></circle>
  <circle cx="658.3" cy="10.0" r="1.09" fill="#0f4c81" opacity="0.22"></circle>
  <circle cx="675.0" cy="10.0" r="1.09" fill="#0f4c81" opacity="0.22"></circle>
  <circle cx="725.0" cy="10.0" r="1.07" fill="#0f4c81" opacity="0.21"></circle>
  <circle cx="441.7" cy="30.0" r="0.98" fill="#0f4c81" opacity="0.19"></circle>
  <circle cx="591.7" cy="30.0" r="1.30" fill="#0f4c81" opacity="0.28"></circle>
  <circle cx="625.0" cy="30.0" r="1.36" fill="#0f4c81" opacity="0.30"></circle>
  <circle cx="675.0" cy="30.0" r="1.40" fill="#0f4c81" opacity="0.32"></circle>
  <circle cx="41.7" cy="50.0" r="1.10" fill="#0f4c81" opacity="0.22"></circle>
  <circle cx="341.7" cy="50.0" r="0.98" fill="#0f4c81" opacity="0.19"></circle>
  <circle cx="458.3" cy="50.0" r="1.21" fill="#0f4c81" opacity="0.26"></circle>
  <circle cx="475.0" cy="50.0" r="1.27" fill="#0f4c81" opacity="0.28"></circle>
  <circle cx="508.3" cy="50.0" r="1.40" fill="#0f4c81" opacity="0.32"></circle>
  <circle cx="541.7" cy="50.0" r="1.55" fill="#0f4c81" opacity="0.36"></circle>
  <circle cx="641.7" cy="50.0" r="1.85" fill="#0f4c81" opacity="0.46"></circle>
  <circle cx="658.3" cy="50.0" r="1.86" fill="#0f4c81" opacity="0.46"></circle>
  <circle cx="675.0" cy="50.0" r="1.87" fill="#0f4c81" opacity="0.46"></circle>
  <circle cx="758.3" cy="50.0" r="1.73" fill="#0f4c81" opacity="0.42"></circle>
  <circle cx="8.3" cy="70.0" r="1.57" fill="#0f4c81" opacity="0.37"></circle>
  <circle cx="25.0" cy="70.0" r="1.49" fill="#0f4c81" opacity="0.34"></circle>
  <circle cx="58.3" cy="70.0" r="1.34" fill="#0f4c81" opacity="0.30"></circle>
  <circle cx="108.3" cy="70.0" r="1.18" fill="#0f4c81" opacity="0.25"></circle>
  <circle cx="358.3" cy="70.0" r="1.20" fill="#0f4c81" opacity="0.25"></circle>
  <circle cx="391.7" cy="70.0" r="1.30" fill="#0f4c81" opacity="0.28"></circle>
  <circle cx="458.3" cy="70.0" r="1.60" fill="#0f4c81" opacity="0.38"></circle>
  <circle cx="475.0" cy="70.0" r="1.69" fill="#0f4c81" opacity="0.41"></circle>
  <circle cx="508.3" cy="70.0" r="1.88" fill="#0f4c81" opacity="0.47"></circle>
  <circle cx="525.0" cy="70.0" r="1.96" fill="#0f4c81" opacity="0.49"></circle>
  <circle cx="541.7" cy="70.0" r="2.04" fill="#0f4c81" opacity="0.52"></circle>
  <circle cx="558.3" cy="70.0" r="2.11" fill="#0f4c81" opacity="0.54"></circle>
  <circle cx="591.7" cy="70.0" r="2.22" fill="#0f4c81" opacity="0.57"></circle>
  <circle cx="608.3" cy="70.0" r="2.26" fill="#0f4c81" opacity="0.59"></circle>
  <circle cx="625.0" cy="70.0" r="2.29" fill="#0f4c81" opacity="0.60"></circle>
  <circle cx="641.7" cy="70.0" r="2.31" fill="#0f4c81" opacity="0.60"></circle>
  <circle cx="658.3" cy="70.0" r="2.33" fill="#0f4c81" opacity="0.61"></circle>
  <circle cx="691.7" cy="70.0" r="2.33" fill="#0f4c81" opacity="0.61"></circle>
  <circle cx="708.3" cy="70.0" r="2.31" fill="#0f4c81" opacity="0.60"></circle>
  <circle cx="725.0" cy="70.0" r="2.29" fill="#0f4c81" opacity="0.60"></circle>
  <circle cx="758.3" cy="70.0" r="2.22" fill="#0f4c81" opacity="0.57"></circle>
  <circle cx="775.0" cy="70.0" r="2.17" fill="#0f4c81" opacity="0.56"></circle>
  <circle cx="791.7" cy="70.0" r="2.11" fill="#0f4c81" opacity="0.54"></circle>
  <circle cx="8.3" cy="90.0" r="2.07" fill="#0f4c81" opacity="0.53"></circle>
  <circle cx="25.0" cy="90.0" r="1.98" fill="#0f4c81" opacity="0.50"></circle>
  <circle cx="41.7" cy="90.0" r="1.88" fill="#0f4c81" opacity="0.47"></circle>
  <circle cx="58.3" cy="90.0" r="1.79" fill="#0f4c81" opacity="0.44"></circle>
  <circle cx="141.7" cy="90.0" r="1.44" fill="#0f4c81" opacity="0.33"></circle>
  <circle cx="225.0" cy="90.0" r="1.32" fill="#0f4c81" opacity="0.29"></circle>
  <circle cx="325.0" cy="90.0" r="1.46" fill="#0f4c81" opacity="0.33"></circle>
  <circle cx="358.3" cy="90.0" r="1.58" fill="#0f4c81" opacity="0.37"></circle>
  <circle cx="391.7" cy="90.0" r="1.73" fill="#0f4c81" opacity="0.42"></circle>
  <circle cx="475.0" cy="90.0" r="2.19" fill="#0f4c81" opacity="0.56"></circle>
  <circle cx="491.7" cy="90.0" r="2.27" fill="#0f4c81" opacity="0.59"></circle>
  <circle cx="508.3" cy="90.0" r="2.33" fill="#0f4c81" opacity="0.61"></circle>
  <circle cx="525.0" cy="90.0" r="2.39" fill="#0f4c81" opacity="0.63"></circle>
  <circle cx="541.7" cy="90.0" r="2.43" fill="#0f4c81" opacity="0.64"></circle>
  <circle cx="558.3" cy="90.0" r="2.46" fill="#0f4c81" opacity="0.65"></circle>
  <circle cx="575.0" cy="90.0" r="2.48" fill="#0f4c81" opacity="0.65"></circle>
  <circle cx="591.7" cy="90.0" r="2.49" fill="#0f4c81" opacity="0.66"></circle>
  <circle cx="608.3" cy="90.0" r="2.50" fill="#0f4c81" opacity="0.66"></circle>
  <circle cx="625.0" cy="90.0" r="2.50" fill="#0f4c81" opacity="0.66"></circle>
  <circle cx="641.7" cy="90.0" r="2.50" fill="#0f4c81" opacity="0.66"></circle>
  <circle cx="658.3" cy="90.0" r="2.50" fill="#0f4c81" opacity="0.66"></circle>
  <circle cx="675.0" cy="90.0" r="2.50" fill="#0f4c81" opacity="0.66"></circle>
  <circle cx="691.7" cy="90.0" r="2.50" fill="#0f4c81" opacity="0.66"></circle>
  <circle cx="708.3" cy="90.0" r="2.50" fill="#0f4c81" opacity="0.66"></circle>
  <circle cx="725.0" cy="90.0" r="2.50" fill="#0f4c81" opacity="0.66"></circle>
  <circle cx="741.7" cy="90.0" r="2.50" fill="#0f4c81" opacity="0.66"></circle>
  <circle cx="758.3" cy="90.0" r="2.49" fill="#0f4c81" opacity="0.66"></circle>
  <circle cx="775.0" cy="90.0" r="2.48" fill="#0f4c81" opacity="0.65"></circle>
  <circle cx="791.7" cy="90.0" r="2.46" fill="#0f4c81" opacity="0.65"></circle>
  <circle cx="25.0" cy="110.0" r="2.40" fill="#0f4c81" opacity="0.63"></circle>
  <circle cx="41.7" cy="110.0" r="2.34" fill="#0f4c81" opacity="0.61"></circle>
  <circle cx="58.3" cy="110.0" r="2.27" fill="#0f4c81" opacity="0.59"></circle>
  <circle cx="75.0" cy="110.0" r="2.20" fill="#0f4c81" opacity="0.57"></circle>
  <circle cx="91.7" cy="110.0" r="2.12" fill="#0f4c81" opacity="0.54"></circle>
  <circle cx="125.0" cy="110.0" r="1.98" fill="#0f4c81" opacity="0.50"></circle>
  <circle cx="175.0" cy="110.0" r="1.83" fill="#0f4c81" opacity="0.45"></circle>
  <circle cx="191.7" cy="110.0" r="1.80" fill="#0f4c81" opacity="0.44"></circle>
  <circle cx="258.3" cy="110.0" r="1.78" fill="#0f4c81" opacity="0.44"></circle>
  <circle cx="275.0" cy="110.0" r="1.81" fill="#0f4c81" opacity="0.44"></circle>
  <circle cx="291.7" cy="110.0" r="1.84" fill="#0f4c81" opacity="0.45"></circle>
  <circle cx="308.3" cy="110.0" r="1.89" fill="#0f4c81" opacity="0.47"></circle>
  <circle cx="325.0" cy="110.0" r="1.94" fill="#0f4c81" opacity="0.49"></circle>
  <circle cx="341.7" cy="110.0" r="2.01" fill="#0f4c81" opacity="0.51"></circle>
  <circle cx="358.3" cy="110.0" r="2.08" fill="#0f4c81" opacity="0.53"></circle>
  <circle cx="375.0" cy="110.0" r="2.15" fill="#0f4c81" opacity="0.55"></circle>
  <circle cx="391.7" cy="110.0" r="2.22" fill="#0f4c81" opacity="0.57"></circle>
  <circle cx="408.3" cy="110.0" r="2.30" fill="#0f4c81" opacity="0.60"></circle>
  <circle cx="441.7" cy="110.0" r="2.42" fill="#0f4c81" opacity="0.63"></circle>
  <circle cx="458.3" cy="110.0" r="2.46" fill="#0f4c81" opacity="0.65"></circle>
  <circle cx="491.7" cy="110.0" r="2.50" fill="#0f4c81" opacity="0.66"></circle>
  <circle cx="508.3" cy="110.0" r="2.50" fill="#0f4c81" opacity="0.66"></circle>
  <circle cx="525.0" cy="110.0" r="2.48" fill="#0f4c81" opacity="0.65"></circle>
  <circle cx="541.7" cy="110.0" r="2.46" fill="#0f4c81" opacity="0.65"></circle>
  <circle cx="558.3" cy="110.0" r="2.43" fill="#0f4c81" opacity="0.64"></circle>
  <circle cx="575.0" cy="110.0" r="2.39" fill="#0f4c81" opacity="0.63"></circle>
  <circle cx="591.7" cy="110.0" r="2.35" fill="#0f4c81" opacity="0.61"></circle>
  <circle cx="608.3" cy="110.0" r="2.32" fill="#0f4c81" opacity="0.60"></circle>
  <circle cx="641.7" cy="110.0" r="2.27" fill="#0f4c81" opacity="0.59"></circle>
  <circle cx="658.3" cy="110.0" r="2.26" fill="#0f4c81" opacity="0.58"></circle>
  <circle cx="675.0" cy="110.0" r="2.25" fill="#0f4c81" opacity="0.58"></circle>
  <circle cx="691.7" cy="110.0" r="2.26" fill="#0f4c81" opacity="0.58"></circle>
  <circle cx="708.3" cy="110.0" r="2.27" fill="#0f4c81" opacity="0.59"></circle>
  <circle cx="725.0" cy="110.0" r="2.29" fill="#0f4c81" opacity="0.60"></circle>
  <circle cx="741.7" cy="110.0" r="2.32" fill="#0f4c81" opacity="0.60"></circle>
  <circle cx="758.3" cy="110.0" r="2.35" fill="#0f4c81" opacity="0.61"></circle>
  <circle cx="775.0" cy="110.0" r="2.39" fill="#0f4c81" opacity="0.63"></circle>
  <circle cx="791.7" cy="110.0" r="2.43" fill="#0f4c81" opacity="0.64"></circle>
  <circle cx="8.3" cy="130.0" r="2.45" fill="#0f4c81" opacity="0.64"></circle>
  <circle cx="25.0" cy="130.0" r="2.48" fill="#0f4c81" opacity="0.65"></circle>
  <circle cx="41.7" cy="130.0" r="2.50" fill="#0f4c81" opacity="0.66"></circle>
  <circle cx="58.3" cy="130.0" r="2.50" fill="#0f4c81" opacity="0.66"></circle>
  <circle cx="75.0" cy="130.0" r="2.49" fill="#0f4c81" opacity="0.66"></circle>
  <circle cx="91.7" cy="130.0" r="2.47" fill="#0f4c81" opacity="0.65"></circle>
  <circle cx="108.3" cy="130.0" r="2.44" fill="#0f4c81" opacity="0.64"></circle>
  <circle cx="125.0" cy="130.0" r="2.40" fill="#0f4c81" opacity="0.63"></circle>
  <circle cx="141.7" cy="130.0" r="2.37" fill="#0f4c81" opacity="0.62"></circle>
  <circle cx="208.3" cy="130.0" r="2.26" fill="#0f4c81" opacity="0.59"></circle>
  <circle cx="225.0" cy="130.0" r="2.25" fill="#0f4c81" opacity="0.58"></circle>
  <circle cx="241.7" cy="130.0" r="2.26" fill="#0f4c81" opacity="0.58"></circle>
  <circle cx="275.0" cy="130.0" r="2.28" fill="#0f4c81" opacity="0.59"></circle>
  <circle cx="291.7" cy="130.0" r="2.31" fill="#0f4c81" opacity="0.60"></circle>
  <circle cx="308.3" cy="130.0" r="2.34" fill="#0f4c81" opacity="0.61"></circle>
  <circle cx="341.7" cy="130.0" r="2.41" fill="#0f4c81" opacity="0.63"></circle>
  <circle cx="358.3" cy="130.0" r="2.45" fill="#0f4c81" opacity="0.64"></circle>
  <circle cx="391.7" cy="130.0" r="2.49" fill="#0f4c81" opacity="0.66"></circle>
  <circle cx="408.3" cy="130.0" r="2.50" fill="#0f4c81" opacity="0.66"></circle>
  <circle cx="425.0" cy="130.0" r="2.49" fill="#0f4c81" opacity="0.66"></circle>
  <circle cx="441.7" cy="130.0" r="2.47" fill="#0f4c81" opacity="0.65"></circle>
  <circle cx="458.3" cy="130.0" r="2.43" fill="#0f4c81" opacity="0.64"></circle>
  <circle cx="475.0" cy="130.0" r="2.38" fill="#0f4c81" opacity="0.62"></circle>
  <circle cx="491.7" cy="130.0" r="2.32" fill="#0f4c81" opacity="0.60"></circle>
  <circle cx="525.0" cy="130.0" r="2.17" fill="#0f4c81" opacity="0.56"></circle>
  <circle cx="558.3" cy="130.0" r="2.03" fill="#0f4c81" opacity="0.51"></circle>
  <circle cx="575.0" cy="130.0" r="1.96" fill="#0f4c81" opacity="0.49"></circle>
  <circle cx="591.7" cy="130.0" r="1.91" fill="#0f4c81" opacity="0.47"></circle>
  <circle cx="625.0" cy="130.0" r="1.82" fill="#0f4c81" opacity="0.45"></circle>
  <circle cx="675.0" cy="130.0" r="1.77" fill="#0f4c81" opacity="0.43"></circle>
  <circle cx="691.7" cy="130.0" r="1.77" fill="#0f4c81" opacity="0.43"></circle>
  <circle cx="725.0" cy="130.0" r="1.82" fill="#0f4c81" opacity="0.45"></circle>
  <circle cx="758.3" cy="130.0" r="1.91" fill="#0f4c81" opacity="0.47"></circle>
  <circle cx="775.0" cy="130.0" r="1.96" fill="#0f4c81" opacity="0.49"></circle>
  <circle cx="791.7" cy="130.0" r="2.03" fill="#0f4c81" opacity="0.51"></circle>
  <circle cx="8.3" cy="150.0" r="2.07" fill="#0f4c81" opacity="0.53"></circle>
  <circle cx="25.0" cy="150.0" r="2.16" fill="#0f4c81" opacity="0.55"></circle>
  <circle cx="58.3" cy="150.0" r="2.31" fill="#0f4c81" opacity="0.60"></circle>
  <circle cx="108.3" cy="150.0" r="2.45" fill="#0f4c81" opacity="0.65"></circle>
  <circle cx="125.0" cy="150.0" r="2.48" fill="#0f4c81" opacity="0.65"></circle>
  <circle cx="141.7" cy="150.0" r="2.49" fill="#0f4c81" opacity="0.66"></circle>
  <circle cx="158.3" cy="150.0" r="2.50" fill="#0f4c81" opacity="0.66"></circle>
  <circle cx="175.0" cy="150.0" r="2.50" fill="#0f4c81" opacity="0.66"></circle>
  <circle cx="191.7" cy="150.0" r="2.50" fill="#0f4c81" opacity="0.66"></circle>
  <circle cx="208.3" cy="150.0" r="2.50" fill="#0f4c81" opacity="0.66"></circle>
  <circle cx="225.0" cy="150.0" r="2.50" fill="#0f4c81" opacity="0.66"></circle>
  <circle cx="241.7" cy="150.0" r="2.50" fill="#0f4c81" opacity="0.66"></circle>
  <circle cx="258.3" cy="150.0" r="2.50" fill="#0f4c81" opacity="0.66"></circle>
  <circle cx="275.0" cy="150.0" r="2.50" fill="#0f4c81" opacity="0.66"></circle>
  <circle cx="291.7" cy="150.0" r="2.50" fill="#0f4c81" opacity="0.66"></circle>
  <circle cx="308.3" cy="150.0" r="2.50" fill="#0f4c81" opacity="0.66"></circle>
  <circle cx="325.0" cy="150.0" r="2.49" fill="#0f4c81" opacity="0.66"></circle>
  <circle cx="341.7" cy="150.0" r="2.47" fill="#0f4c81" opacity="0.65"></circle>
  <circle cx="358.3" cy="150.0" r="2.44" fill="#0f4c81" opacity="0.64"></circle>
  <circle cx="375.0" cy="150.0" r="2.41" fill="#0f4c81" opacity="0.63"></circle>
  <circle cx="391.7" cy="150.0" r="2.35" fill="#0f4c81" opacity="0.61"></circle>
  <circle cx="408.3" cy="150.0" r="2.29" fill="#0f4c81" opacity="0.59"></circle>
  <circle cx="425.0" cy="150.0" r="2.22" fill="#0f4c81" opacity="0.57"></circle>
  <circle cx="441.7" cy="150.0" r="2.13" fill="#0f4c81" opacity="0.54"></circle>
  <circle cx="475.0" cy="150.0" r="1.95" fill="#0f4c81" opacity="0.49"></circle>
  <circle cx="491.7" cy="150.0" r="1.85" fill="#0f4c81" opacity="0.46"></circle>
  <circle cx="508.3" cy="150.0" r="1.76" fill="#0f4c81" opacity="0.43"></circle>
  <circle cx="608.3" cy="150.0" r="1.39" fill="#0f4c81" opacity="0.31"></circle>
  <circle cx="641.7" cy="150.0" r="1.34" fill="#0f4c81" opacity="0.30"></circle>
  <circle cx="658.3" cy="150.0" r="1.33" fill="#0f4c81" opacity="0.29"></circle>
  <circle cx="691.7" cy="150.0" r="1.33" fill="#0f4c81" opacity="0.29"></circle>
  <circle cx="708.3" cy="150.0" r="1.34" fill="#0f4c81" opacity="0.30"></circle>
  <circle cx="725.0" cy="150.0" r="1.36" fill="#0f4c81" opacity="0.30"></circle>
  <circle cx="775.0" cy="150.0" r="1.48" fill="#0f4c81" opacity="0.34"></circle>
  <circle cx="25.0" cy="170.0" r="1.66" fill="#0f4c81" opacity="0.40"></circle>
  <circle cx="41.7" cy="170.0" r="1.76" fill="#0f4c81" opacity="0.43"></circle>
  <circle cx="58.3" cy="170.0" r="1.85" fill="#0f4c81" opacity="0.46"></circle>
  <circle cx="75.0" cy="170.0" r="1.93" fill="#0f4c81" opacity="0.48"></circle>
  <circle cx="91.7" cy="170.0" r="2.02" fill="#0f4c81" opacity="0.51"></circle>
  <circle cx="141.7" cy="170.0" r="2.21" fill="#0f4c81" opacity="0.57"></circle>
  <circle cx="175.0" cy="170.0" r="2.28" fill="#0f4c81" opacity="0.59"></circle>
  <circle cx="191.7" cy="170.0" r="2.31" fill="#0f4c81" opacity="0.60"></circle>
  <circle cx="208.3" cy="170.0" r="2.32" fill="#0f4c81" opacity="0.60"></circle>
  <circle cx="225.0" cy="170.0" r="2.33" fill="#0f4c81" opacity="0.61"></circle>
  <circle cx="241.7" cy="170.0" r="2.33" fill="#0f4c81" opacity="0.61"></circle>
  <circle cx="275.0" cy="170.0" r="2.30" fill="#0f4c81" opacity="0.60"></circle>
  <circle cx="291.7" cy="170.0" r="2.27" fill="#0f4c81" opacity="0.59"></circle>
  <circle cx="308.3" cy="170.0" r="2.24" fill="#0f4c81" opacity="0.58"></circle>
  <circle cx="325.0" cy="170.0" r="2.19" fill="#0f4c81" opacity="0.56"></circle>
  <circle cx="341.7" cy="170.0" r="2.13" fill="#0f4c81" opacity="0.55"></circle>
  <circle cx="358.3" cy="170.0" r="2.07" fill="#0f4c81" opacity="0.52"></circle>
  <circle cx="375.0" cy="170.0" r="1.99" fill="#0f4c81" opacity="0.50"></circle>
  <circle cx="391.7" cy="170.0" r="1.91" fill="#0f4c81" opacity="0.47"></circle>
  <circle cx="408.3" cy="170.0" r="1.82" fill="#0f4c81" opacity="0.45"></circle>
  <circle cx="425.0" cy="170.0" r="1.72" fill="#0f4c81" opacity="0.42"></circle>
  <circle cx="441.7" cy="170.0" r="1.63" fill="#0f4c81" opacity="0.39"></circle>
  <circle cx="508.3" cy="170.0" r="1.32" fill="#0f4c81" opacity="0.29"></circle>
  <circle cx="625.0" cy="170.0" r="1.07" fill="#0f4c81" opacity="0.21"></circle>
  <circle cx="641.7" cy="170.0" r="1.06" fill="#0f4c81" opacity="0.21"></circle>
  <circle cx="91.7" cy="190.0" r="1.52" fill="#0f4c81" opacity="0.35"></circle>
  <circle cx="141.7" cy="190.0" r="1.72" fill="#0f4c81" opacity="0.41"></circle>
  <circle cx="158.3" cy="190.0" r="1.77" fill="#0f4c81" opacity="0.43"></circle>
  <circle cx="175.0" cy="190.0" r="1.81" fill="#0f4c81" opacity="0.44"></circle>
  <circle cx="191.7" cy="190.0" r="1.84" fill="#0f4c81" opacity="0.45"></circle>
  <circle cx="225.0" cy="190.0" r="1.87" fill="#0f4c81" opacity="0.46"></circle>
  <circle cx="258.3" cy="190.0" r="1.85" fill="#0f4c81" opacity="0.46"></circle>
  <circle cx="275.0" cy="190.0" r="1.83" fill="#0f4c81" opacity="0.45"></circle>
  <circle cx="291.7" cy="190.0" r="1.80" fill="#0f4c81" opacity="0.44"></circle>
  <circle cx="308.3" cy="190.0" r="1.75" fill="#0f4c81" opacity="0.43"></circle>
  <circle cx="341.7" cy="190.0" r="1.64" fill="#0f4c81" opacity="0.39"></circle>
  <circle cx="375.0" cy="190.0" r="1.50" fill="#0f4c81" opacity="0.35"></circle>
  <circle cx="191.7" cy="210.0" r="1.38" fill="#0f4c81" opacity="0.31"></circle>
  <circle cx="208.3" cy="210.0" r="1.39" fill="#0f4c81" opacity="0.31"></circle>
  <circle cx="241.7" cy="210.0" r="1.40" fill="#0f4c81" opacity="0.32"></circle>
  <circle cx="275.0" cy="210.0" r="1.37" fill="#0f4c81" opacity="0.31"></circle>
  <circle cx="375.0" cy="210.0" r="1.15" fill="#0f4c81" opacity="0.24"></circle>
  <circle cx="225.0" cy="230.0" r="1.09" fill="#0f4c81" opacity="0.22"></circle>
  <circle cx="241.7" cy="230.0" r="1.09" fill="#0f4c81" opacity="0.22"></circle>
  <circle cx="291.7" cy="230.0" r="1.07" fill="#0f4c81" opacity="0.21"></circle>
</svg>